<?xml version="1.0" encoding="UTF-8"?><svg id="Layer_1" xmlns="http://www.w3.org/2000/svg" width="35.28mm" height="35.28mm" viewBox="0 0 100 100"><defs><style>.cls-1{fill:#017575;}</style></defs><path class="cls-1" d="M22.84,8.3c-.37-.47-.83-.87-1.37-1.15-.53-.28-1.12-.45-1.72-.48-.6-.04-1.2.05-1.76.27-.56.21-1.07.54-1.5.97l-6.46,6.47c-3.02,3.03-4.13,7.31-2.81,11.06,5.48,15.54,14.38,29.66,26.05,41.3,11.64,11.67,25.76,20.57,41.3,26.05,3.76,1.32,8.04.21,11.06-2.81l6.46-6.46c.43-.42.76-.94.97-1.5.21-.56.3-1.16.27-1.76-.04-.6-.2-1.19-.48-1.72-.28-.53-.67-1-1.15-1.37l-14.42-11.21c-.51-.39-1.1-.67-1.73-.8-.63-.13-1.28-.12-1.9.03l-13.69,3.42c-1.83.45-3.74.43-5.55-.07-1.81-.5-3.47-1.46-4.8-2.79l-15.35-15.36c-1.33-1.33-2.29-2.99-2.8-4.8-.5-1.81-.53-3.73-.08-5.56l3.43-13.69c.15-.62.17-1.27.03-1.9-.13-.63-.4-1.22-.8-1.73l-11.21-14.42ZM11.78,3.2c1.09-1.09,2.41-1.94,3.85-2.49C17.08.16,18.63-.08,20.17.02c1.54.1,3.05.52,4.42,1.24,1.37.72,2.57,1.73,3.52,2.95l11.21,14.41c2.06,2.64,2.78,6.09,1.97,9.34l-3.42,13.69c-.18.71-.17,1.45.03,2.16.2.7.57,1.35,1.08,1.86l15.36,15.36c.52.52,1.16.89,1.87,1.08.71.19,1.45.2,2.16.03l13.68-3.42c1.6-.4,3.28-.43,4.9-.09,1.62.34,3.14,1.04,4.44,2.06l14.41,11.21c5.18,4.03,5.66,11.69,1.02,16.32l-6.46,6.46c-4.62,4.62-11.54,6.66-17.98,4.39-16.5-5.8-31.47-15.24-43.81-27.62C16.17,59.11,6.72,44.13.93,27.64c-2.26-6.44-.23-13.36,4.39-17.98l6.46-6.46Z"/></svg>