<?xml version="1.0" encoding="UTF-8"?><svg id="Layer_1" xmlns="http://www.w3.org/2000/svg" width="128.01mm" height="115.94mm" viewBox="0 0 362.85 328.65"><defs><style>.cls-1{fill:#F9D142;}</style></defs><path class="cls-1" d="M301.08,184.06c-55.2,26.47-118.36,33.15-178.63,24.53-8.01-.52-30.56-7.94-34.88-1-2.49,3.17,1.31,10.65,4.59,14.35,8.38,10.17,19.71,17.63,31.72,22.95,41.75,18.09,94.16,22.12,133.48-3.81,15.68-9.62,26.08-24.98,43.93-31.28,25.89-9.14,80.81,29.76,54.68,62.9-4.88,6.14-11.42,11.37-18.24,16-16.2,10.75-32.9,18.36-51.62,24.3-66.38,22.3-149.28,23.92-209.23-15.95C4.91,248.77-23.07,154.12,21.34,77.65,44.15,37.77,85.34,9.12,130.89,2.27c67.65-9.88,146.48,12.61,190.74,66.54,32.48,40.22,27.09,90.66-20.38,115.17l-.17.09ZM175.34,148.82c23-.81,61.44,3.6,71.42-22.8,4.75-13.35-.83-28.07-8.99-39-18.18-25.26-53.31-30.98-82.41-25.43-25.08,5.34-49.69,24.62-52.61,50.96-3.29,38.91,45.59,36.18,72.39,36.27h.2Z"/></svg>