<?xml version="1.0" encoding="UTF-8"?><svg id="Layer_1" xmlns="http://www.w3.org/2000/svg" width="35.28mm" height="35.28mm" viewBox="0 0 100 100"><defs><style>.cls-1{fill:#017575;}</style></defs><path class="cls-1" d="M0,7.16C0,3.21,3.29,0,7.34,0h85.31c4.06,0,7.34,3.21,7.34,7.16v85.67c0,3.96-3.29,7.16-7.34,7.16H7.34c-4.06,0-7.34-3.21-7.34-7.16V7.16ZM30.89,83.71v-45.16h-15.01v45.16h15.01ZM23.39,32.39c5.23,0,8.49-3.46,8.49-7.8-.09-4.43-3.25-7.8-8.39-7.8s-8.49,3.38-8.49,7.8,3.26,7.8,8.29,7.8h.1ZM54.07,83.71v-25.22c0-1.35.1-2.7.5-3.66,1.08-2.69,3.55-5.49,7.7-5.49,5.43,0,7.6,4.14,7.6,10.21v24.16h15.01v-25.9c0-13.88-7.4-20.33-17.28-20.33-7.96,0-11.53,4.38-13.53,7.46v.16h-.1l.1-.16v-6.39h-15c.19,4.24,0,45.16,0,45.16h15Z"/></svg>