<?xml version="1.0" encoding="UTF-8"?><svg id="Layer_1" xmlns="http://www.w3.org/2000/svg" width="13.73mm" height="11.06mm" viewBox="0 0 38.91 31.34"><defs><style>.cls-1{fill:#e9e9e9;}</style></defs><path class="cls-1" d="M33.93,11.61l3.43-.68-3.43.68ZM35.49,29.97l3.42-.74-1.5-6.84-3.42.74,1.5,6.84ZM3.16,19.53c1.98.46,10.25,1.85,17.87,1.87,3.74,0,7.77-.32,10.85-1.52,1.56-.61,3.2-1.57,4.33-3.14,1.22-1.69,1.58-3.72,1.16-5.81l-6.86,1.36c.05.24.03.33.03.34,0,0,0,0,0,0,0,0,0,0,0,.01-.05.07-.33.38-1.21.72-1.8.7-4.74,1.04-8.3,1.04-7-.01-14.73-1.32-16.3-1.69l-1.55,6.82ZM37.37,10.93c-1.34-6.63-7.34-9.16-11.8-10.14C20.9-.24,16.22,0,14.9.07l.38,6.99c1.3-.07,5.15-.25,8.8.56,3.85.85,5.96,2.4,6.42,4.67l6.86-1.36ZM14.9.07c-1.68.08-6.07.74-9.7,3.55-1.88,1.46-3.58,3.53-4.5,6.37-.91,2.82-.96,6.13,0,9.95l6.79-1.68c-.71-2.84-.55-4.78-.13-6.1.42-1.31,1.19-2.26,2.14-3.01,2.05-1.59,4.82-2.05,5.77-2.1L14.9.07ZM.7,19.95c1.17,4.67,4.48,7.52,8.2,9.15,3.63,1.58,7.87,2.12,11.68,2.23,3.87.1,7.58-.23,10.3-.59,1.37-.18,2.5-.37,3.3-.51.4-.07.72-.13.94-.18.11-.02.2-.04.26-.05.03,0,.05-.01.07-.02,0,0,.02,0,.02,0,0,0,0,0,0,0,0,0,0,0,0,0t-.75-3.42q-.75-3.42-.75-3.42s0,0,0,0c0,0,0,0,0,0,0,0,0,0,0,0,0,0-.02,0-.04,0-.04,0-.11.02-.2.04-.18.04-.45.09-.81.15-.71.13-1.73.3-2.98.46-2.5.33-5.82.63-9.2.53-3.42-.09-6.63-.58-9.07-1.64-2.34-1.02-3.7-2.43-4.2-4.42l-6.79,1.68Z"/></svg>