<?xml version="1.0" encoding="UTF-8"?><svg id="Layer_1" xmlns="http://www.w3.org/2000/svg" width="42.94mm" height="32.21mm" viewBox="0 0 121.73 91.3"><defs><style>.cls-1{fill:#017575;}</style></defs><path class="cls-1" d="M0,15.22c0-4.04,1.6-7.91,4.46-10.76C7.31,1.6,11.18,0,15.22,0h91.3c4.04,0,7.91,1.6,10.76,4.46,2.85,2.85,4.46,6.72,4.46,10.76v60.86c0,4.04-1.6,7.91-4.46,10.76-2.85,2.85-6.72,4.46-10.76,4.46H15.22c-4.04,0-7.91-1.6-10.76-4.46-2.85-2.85-4.46-6.72-4.46-10.76V15.22ZM15.22,7.61c-2.02,0-3.95.8-5.38,2.23-1.43,1.43-2.23,3.36-2.23,5.38v1.65l53.26,31.95,53.26-31.95v-1.65c0-2.02-.8-3.95-2.23-5.38-1.43-1.43-3.36-2.23-5.38-2.23H15.22ZM114.12,25.74l-35.82,21.49,35.82,22.04V25.74ZM113.86,78.05l-42.91-26.41-10.09,6.05-10.09-6.05L7.87,78.04c.43,1.62,1.39,3.05,2.72,4.07,1.33,1.02,2.96,1.57,4.63,1.57h91.3c1.67,0,3.3-.55,4.63-1.57,1.33-1.02,2.28-2.45,2.72-4.07ZM7.61,69.27l35.82-22.04L7.61,25.74v43.53Z"/></svg>